<svg width="16" height="16" viewBox="0 0 16 16" fill="none" xmlns="http://www.w3.org/2000/svg">
<g clip-path="url(#clip0_95_143)">
<path d="M7.99641 1.85119C10.0017 1.85119 10.2389 1.85119 11.0295 1.89432C11.5053 1.90303 11.9765 1.99046 12.4238 2.15306C12.7514 2.27749 13.0489 2.46994 13.2966 2.71772C13.5444 2.96549 13.7368 3.26296 13.8613 3.59053C14.0239 4.03785 14.1113 4.509 14.12 4.98488C14.156 5.77549 14.1632 6.01267 14.1632 8.01075C14.1632 10.0088 14.1632 10.2532 14.12 11.0438C14.1113 11.5197 14.0239 11.9908 13.8613 12.4382C13.7368 12.7657 13.5444 13.0632 13.2966 13.311C13.0489 13.5587 12.7514 13.7512 12.4238 13.8756C11.9765 14.0382 11.5053 14.1257 11.0295 14.1344C10.2389 14.1703 10.0017 14.1775 7.99641 14.1775C5.99114 14.1775 5.76114 14.1775 4.97053 14.1344C4.49466 14.1257 4.0235 14.0382 3.57619 13.8756C3.24862 13.7512 2.95114 13.5587 2.70337 13.311C2.4556 13.0632 2.26315 12.7657 2.13872 12.4382C1.97611 11.9908 1.88868 11.5197 1.87997 11.0438C1.84403 10.2532 1.83685 10.016 1.83685 8.01075C1.83685 6.00548 1.83685 5.77549 1.87997 4.98488C1.8917 4.50335 1.98402 4.02718 2.15309 3.57616C2.27752 3.24859 2.46997 2.95111 2.71774 2.70334C2.96552 2.45557 3.26299 2.26312 3.59056 2.13869C4.03788 1.97608 4.50903 1.88865 4.98491 1.87994C5.77551 1.844 6.0127 1.83682 8.01078 1.83682L7.99641 1.85119ZM8.01078 0.485596C5.96239 0.49997 5.71083 0.49997 4.90585 0.543095C4.28399 0.555269 3.66888 0.674402 3.08745 0.895275C2.58556 1.08023 2.1313 1.37489 1.75779 1.75776C1.37492 2.13127 1.08026 2.58553 0.895304 3.08742C0.674431 3.66885 0.555298 4.28396 0.543124 4.90582C0.5 5.7108 0.5 5.96236 0.5 7.99638C0.5 10.0304 0.5 10.2891 0.543124 11.0941C0.555298 11.716 0.674431 12.3311 0.895304 12.9125C1.08026 13.4144 1.37492 13.8687 1.75779 14.2422C2.1331 14.6228 2.58684 14.9172 3.08745 15.1047C3.66888 15.3255 4.28399 15.4447 4.90585 15.4568C5.71083 15.4928 5.96239 15.5 7.99641 15.5C10.0304 15.5 10.2892 15.5 11.0942 15.4568C11.716 15.4447 12.3311 15.3255 12.9126 15.1047C13.4114 14.9138 13.8645 14.6199 14.2422 14.2422C14.6199 13.8645 14.9138 13.4114 15.1047 12.9125C15.3256 12.3311 15.4447 11.716 15.4569 11.0941C15.4928 10.2891 15.5 10.0376 15.5 7.99638C15.5 5.95517 15.5 5.7108 15.4569 4.90582C15.4447 4.28396 15.3256 3.66885 15.1047 3.08742C14.9172 2.58681 14.6229 2.13307 14.2422 1.75776C13.8687 1.37489 13.4144 1.08023 12.9126 0.895275C12.3311 0.674402 11.716 0.555269 11.0942 0.543095C10.2892 0.49997 10.0376 0.49997 7.99641 0.49997" fill="#EEF6F9"/>
<path d="M7.99646 4.15112C7.23422 4.15112 6.4891 4.37725 5.85542 4.80088C5.22174 5.2245 4.72797 5.82659 4.4366 6.53095C4.14524 7.23531 4.06937 8.01027 4.2186 8.75776C4.36783 9.50525 4.73545 10.1917 5.27494 10.7302C5.81443 11.2686 6.50153 11.635 7.2493 11.7828C7.99707 11.9306 8.77189 11.8533 9.4757 11.5606C10.1795 11.268 10.7807 10.7731 11.2031 10.1386C11.6256 9.50413 11.8503 8.7586 11.8489 7.99635C11.847 6.97588 11.4403 5.99784 10.718 5.27693C9.99573 4.55601 9.01694 4.15112 7.99646 4.15112ZM7.99646 10.4976C7.50177 10.4976 7.01819 10.3509 6.60687 10.076C6.19555 9.80119 5.87496 9.41056 5.68565 8.95352C5.49634 8.49649 5.44681 7.99358 5.54332 7.50839C5.63983 7.02321 5.87804 6.57754 6.22784 6.22774C6.57764 5.87794 7.02331 5.63973 7.5085 5.54322C7.99368 5.44671 8.49659 5.49624 8.95362 5.68555C9.41066 5.87486 9.80129 6.19544 10.0761 6.60676C10.351 7.01808 10.4977 7.50166 10.4977 7.99635C10.4986 8.32508 10.4346 8.65075 10.3092 8.95464C10.1838 9.25853 9.99963 9.53464 9.76719 9.76708C9.53474 9.99953 9.25863 10.1837 8.95475 10.3091C8.65086 10.4345 8.32519 10.4985 7.99646 10.4976Z" fill="#EEF6F9"/>
<path d="M12.9054 3.99317C12.9068 4.17259 12.8549 4.34838 12.7563 4.49825C12.6577 4.64811 12.5167 4.76531 12.3514 4.83495C12.186 4.9046 12.0037 4.92356 11.8276 4.88943C11.6514 4.85531 11.4894 4.76963 11.362 4.64327C11.2347 4.51691 11.1477 4.35556 11.1122 4.1797C11.0766 4.00383 11.0942 3.82138 11.1625 3.65548C11.2308 3.48958 11.3469 3.34772 11.4959 3.24789C11.645 3.14806 11.8204 3.09476 11.9998 3.09476C12.1184 3.09381 12.236 3.11634 12.3458 3.16107C12.4557 3.20579 12.5556 3.27182 12.6397 3.35534C12.7239 3.43886 12.7908 3.53822 12.8364 3.6477C12.882 3.75717 12.9054 3.87459 12.9054 3.99317Z" fill="#EEF6F9"/>
</g>
<defs>
<clipPath id="clip0_95_143">
<rect width="15" height="15" fill="white" transform="translate(0.5 0.5)"/>
</clipPath>
</defs>
</svg>
