<svg width="16" height="16" viewBox="0 0 16 16" fill="none" xmlns="http://www.w3.org/2000/svg">
<g clip-path="url(#clip0_95_135)">
<path d="M3.89619 5.49731H0.798706V15.4921H3.89619V5.49731Z" fill="#EEF6F9"/>
<path d="M2.33178 4.19297C2.69783 4.19608 3.05656 4.09044 3.36243 3.88944C3.66831 3.68845 3.90755 3.40116 4.0498 3.06404C4.19205 2.72692 4.23088 2.35516 4.16138 1.99594C4.09188 1.63672 3.91718 1.30624 3.65944 1.04642C3.4017 0.78661 3.07255 0.60918 2.71375 0.536648C2.35495 0.464117 1.98268 0.499755 1.64418 0.63904C1.30568 0.778325 1.01621 1.01498 0.812499 1.31897C0.608792 1.62296 0.50003 1.98058 0.500017 2.34645C0.498982 2.58791 0.545542 2.8272 0.637037 3.05068C0.728532 3.27415 0.863171 3.47742 1.03327 3.64889C1.20336 3.82035 1.40558 3.95665 1.62838 4.05001C1.85118 4.14336 2.09019 4.19194 2.33178 4.19297Z" fill="#EEF6F9"/>
<path d="M8.8412 10.2513C8.8412 8.84479 9.49372 8.00404 10.728 8.00404C11.9623 8.00404 12.4182 8.78979 12.4182 10.2513V15.5001H15.5V9.14338C15.5 6.48754 13.9827 5.21462 11.8601 5.21462C11.2565 5.2072 10.6613 5.35599 10.1323 5.6465C9.60334 5.93702 9.15855 6.35939 8.8412 6.87256V5.49749H5.86951V15.5001H8.8412V10.2513Z" fill="#EEF6F9"/>
</g>
<defs>
<clipPath id="clip0_95_135">
<rect width="15" height="15" fill="white" transform="translate(0.5 0.5)"/>
</clipPath>
</defs>
</svg>
