<svg width="18" height="14" viewBox="0 0 18 14" fill="none" xmlns="http://www.w3.org/2000/svg">
<g clip-path="url(#clip0_95_139)">
<path d="M0.5 12.025C2.09522 12.9898 3.95189 13.5019 5.84813 13.5002C7.19184 13.5084 8.52315 13.258 9.76029 12.7644C10.9974 12.2708 12.1143 11.5444 13.0422 10.6298C13.9701 9.71518 14.6896 8.63173 15.1563 7.44596C15.6231 6.26019 15.8273 4.99714 15.7564 3.73439C16.4397 3.28642 17.0305 2.72507 17.5 2.07784C16.8619 2.34019 16.1873 2.5155 15.4965 2.59847C16.2346 2.17741 16.781 1.5143 17.0306 0.736816C16.3468 1.11803 15.5981 1.38492 14.8176 1.52565C14.2889 1.00506 13.5934 0.66209 12.8376 0.549357C12.0819 0.436625 11.3077 0.560362 10.6339 0.901583C9.96006 1.2428 9.42385 1.78265 9.1075 2.4383C8.79116 3.09394 8.71216 3.82915 8.88264 4.53111C7.4934 4.46815 6.13391 4.12996 4.89309 3.53866C3.65226 2.94735 2.55803 2.11624 1.68195 1.09968C1.2379 1.82357 1.10257 2.67915 1.30331 3.49336C1.50406 4.30757 2.02591 5.01966 2.76331 5.4856C2.20888 5.46436 1.66695 5.32405 1.17899 5.07541C1.17215 5.83964 1.44762 6.58238 1.95832 7.17663C2.46901 7.77088 3.18321 8.17974 3.9788 8.3333C3.46455 8.46279 2.92592 8.48167 2.40286 8.38852C2.62737 9.0402 3.06202 9.60989 3.64639 10.0184C4.23077 10.427 4.93586 10.6541 5.66371 10.6682C4.20119 11.7459 2.34423 12.2338 0.5 12.025H0.5Z" fill="#EEF6F9"/>
</g>
<defs>
<clipPath id="clip0_95_139">
<rect width="17" height="13" fill="white" transform="translate(0.5 0.5)"/>
</clipPath>
</defs>
</svg>
