<svg width="16" height="16" viewBox="0 0 16 16" fill="none" xmlns="http://www.w3.org/2000/svg">
<g clip-path="url(#clip0_95_130)">
<path fill-rule="evenodd" clip-rule="evenodd" d="M15.4942 7.61961C15.4072 5.73806 14.6025 3.96129 13.2456 2.65441C11.8886 1.34753 10.0825 0.609804 8.19828 0.592829C6.31407 0.575854 4.49491 1.28092 3.11463 2.56314C1.73434 3.84536 0.897771 5.60734 0.776817 7.48702C0.776817 7.59078 0.776817 7.70031 0.776817 7.80408C0.773094 9.1352 1.13624 10.4416 1.82641 11.58L0.5 15.4886L4.57728 14.1915C5.69432 14.8045 6.95129 15.1176 8.22549 15.1001C9.49969 15.0826 10.7476 14.7352 11.8474 14.0917C12.9472 13.4482 13.8613 12.5307 14.5004 11.4287C15.1396 10.3267 15.482 9.07786 15.4942 7.80408V7.61961ZM8.12976 13.9609C6.92073 13.9625 5.73775 13.6098 4.72722 12.9463L2.35121 13.6899L3.12399 11.384C2.36468 10.3369 1.96051 9.07429 1.97059 7.78102C1.96935 7.58847 1.97897 7.39601 1.99942 7.20454C2.16147 5.67386 2.88809 4.25839 4.03758 3.23421C5.18707 2.21003 6.67698 1.65059 8.21674 1.66499C9.7565 1.67938 11.2357 2.26659 12.3658 3.31209C13.4959 4.35758 14.1959 5.78639 14.3293 7.31984C14.3379 7.47921 14.3379 7.63894 14.3293 7.79832C14.3232 9.43479 13.6674 11.0019 12.506 12.1553C11.3446 13.3087 9.77263 13.9539 8.13552 13.9494L8.12976 13.9609Z" fill="#EEF6F9"/>
<path fill-rule="evenodd" clip-rule="evenodd" d="M11.515 9.2797C11.3304 9.19323 10.4423 8.75511 10.2808 8.70322C10.1193 8.65134 9.99248 8.61675 9.87137 8.79546C9.75026 8.97417 9.40424 9.37194 9.29467 9.493C9.18509 9.61406 9.08129 9.63136 8.90251 9.53912C8.37106 9.32805 7.87957 9.0278 7.44922 8.65134C7.05692 8.2922 6.72063 7.87637 6.45153 7.41767C6.34772 7.23897 6.45153 7.14096 6.53227 7.05449C6.61301 6.96802 6.71105 6.84119 6.80332 6.73743L6.86675 6.65096C6.91 6.58256 6.94854 6.51129 6.98209 6.43766C7.00784 6.38981 7.02131 6.33634 7.02131 6.28201C7.02131 6.22768 7.00784 6.17421 6.98209 6.12636C6.93596 6.03412 6.57264 5.15211 6.40539 4.79469C6.23815 4.43727 6.10551 4.50069 5.99594 4.50069C5.88636 4.50069 5.77102 4.50069 5.64992 4.50069C5.55897 4.50334 5.46954 4.52466 5.38719 4.56334C5.30485 4.60202 5.23134 4.65722 5.17125 4.72551C4.97011 4.91258 4.8099 5.13925 4.70072 5.39126C4.59154 5.64327 4.53576 5.91515 4.53688 6.18977C4.54127 6.39658 4.57229 6.60196 4.62915 6.80084C4.77136 7.24812 4.98988 7.66745 5.27506 8.04027C5.36733 8.15557 6.5265 10.0291 8.36041 10.744C10.1943 11.4588 10.1943 11.2224 10.5288 11.1936C10.7803 11.1452 11.0188 11.0442 11.2285 10.8971C11.4382 10.7501 11.6145 10.5604 11.7456 10.3404C11.8638 10.0725 11.8999 9.77564 11.8495 9.48724C11.8149 9.41806 11.6937 9.37194 11.515 9.2797Z" fill="#EEF6F9"/>
</g>
<defs>
<clipPath id="clip0_95_130">
<rect width="15" height="15" fill="white" transform="translate(0.5 0.5)"/>
</clipPath>
</defs>
</svg>
