<svg width="18" height="12" viewBox="0 0 18 12" fill="none" xmlns="http://www.w3.org/2000/svg">
<g clip-path="url(#clip0_95_133)">
<path d="M17.1428 1.87325C17.0472 1.51091 16.8582 1.18013 16.5947 0.914137C16.3311 0.648146 16.0024 0.456304 15.6415 0.357875C14.3187 0 8.99996 0 8.99996 0C8.99996 0 3.68677 0 2.35847 0.357875C1.99753 0.456304 1.6688 0.648146 1.40527 0.914137C1.14175 1.18013 0.952717 1.51091 0.857153 1.87325C0.610751 3.23478 0.491174 4.6163 0.499963 6C0.491174 7.3837 0.610751 8.76522 0.857153 10.1267C0.952717 10.4891 1.14175 10.8199 1.40527 11.0859C1.6688 11.3519 1.99753 11.5437 2.35847 11.6421C3.68677 12 8.99996 12 8.99996 12C8.99996 12 14.3187 12 15.6415 11.6421C16.0024 11.5437 16.3311 11.3519 16.5947 11.0859C16.8582 10.8199 17.0472 10.4891 17.1428 10.1267C17.3892 8.76522 17.5088 7.3837 17.5 6C17.5088 4.6163 17.3892 3.23478 17.1428 1.87325ZM7.26424 8.53309V3.46692L11.7291 6L7.26424 8.53309Z" fill="#EEF6F9"/>
</g>
<defs>
<clipPath id="clip0_95_133">
<rect width="17" height="12" fill="white" transform="translate(0.5)"/>
</clipPath>
</defs>
</svg>
